# xmcd
#
# Track frame offsets: 
#        150
#        12155
#        22545
#        34497
#        45930
#        58405
#        70885
#        83367
#        95855
#        107302
#        117200
#        129160
#        140340
#        154515
#        165962
#        176625
#        186775
#        197707
#        211240
#        224262
#
# Disc length: 3175 seconds
#
# Revision: 0
# Processed by: cddbd v1.5.2PL0 Copyright (c) Steve Scherf et al.
# Submitted via: ExactAudioCopy v0.99pb5
#
DISCID=fd0c6514
DTITLE=김용임 - 옛날노래(cd2)
DYEAR=2016
DGENRE=Blues
TTITLE0=추억의 소야곡(2)
TTITLE1=알뜰한 당신
TTITLE2=청년고향
TTITLE3=나는 울었네
TTITLE4=고향에 찾아와도
TTITLE5=꿈꾸는 백마강
TTITLE6=판문점의 달밤
TTITLE7=왕자호동
TTITLE8=짝사랑1
TTITLE9=목포의 눈물
TTITLE10=백마야 울지마라
TTITLE11=효녀심청
TTITLE12=신라의 달밤
TTITLE13=비내리는 호남선
TTITLE14=갈매기 쌍쌍
TTITLE15=산팔자 물팔자
TTITLE16=항구의 사랑
TTITLE17=아내의 노래
TTITLE18=엽전 열닷냥
TTITLE19=고향만리
EXTD=
EXTT0=
EXTT1=
EXTT2=
EXTT3=
EXTT4=
EXTT5=
EXTT6=
EXTT7=
EXTT8=
EXTT9=
EXTT10=
EXTT11=
EXTT12=
EXTT13=
EXTT14=
EXTT15=
EXTT16=
EXTT17=
EXTT18=
EXTT19=
PLAYORDER=
